<svg width="40" height="43" viewBox="0 0 40 43" fill="none" xmlns="http://www.w3.org/2000/svg">
<mask id="path-1-inside-1_271_4" fill="white">
<path fill-rule="evenodd" clip-rule="evenodd" d="M5 0.25C2.65279 0.25 0.75 2.15279 0.75 4.5C0.75 6.84721 2.65279 8.75 5 8.75H34.75C36.9591 8.75 38.75 10.5409 38.75 12.75C38.75 14.9591 36.9591 16.75 34.75 16.75H5.25C2.76472 16.75 0.75 18.7647 0.75 21.25C0.75 23.7353 2.76472 25.75 5.25 25.75H15.0088C15.137 27.5663 16.6511 29 18.5 29C20.3489 29 21.863 27.5663 21.9912 25.75H34.75C36.9591 25.75 38.75 27.5409 38.75 29.75C38.75 31.9591 36.9591 33.75 34.75 33.75H5.25C2.76472 33.75 0.75 35.7647 0.75 38.25C0.75 40.7353 2.76472 42.75 5.25 42.75H38V42.25H5.25C3.04086 42.25 1.25 40.4591 1.25 38.25C1.25 36.0409 3.04086 34.25 5.25 34.25H34.75C37.2353 34.25 39.25 32.2353 39.25 29.75C39.25 27.2647 37.2353 25.25 34.75 25.25H21.9912C21.863 23.4337 20.3489 22 18.5 22C16.6511 22 15.137 23.4337 15.0088 25.25H5.25C3.04086 25.25 1.25 23.4591 1.25 21.25C1.25 19.0409 3.04086 17.25 5.25 17.25H34.75C37.2353 17.25 39.25 15.2353 39.25 12.75C39.25 10.2647 37.2353 8.25 34.75 8.25H5C2.92893 8.25 1.25 6.57107 1.25 4.5C1.25 2.42893 2.92893 0.75 5 0.75H38V0.25H5ZM15.5 25.5C15.5 27.1569 16.8431 28.5 18.5 28.5C20.1569 28.5 21.5 27.1569 21.5 25.5C21.5 23.8431 20.1569 22.5 18.5 22.5C16.8431 22.5 15.5 23.8431 15.5 25.5Z"/>
</mask>
<path fill-rule="evenodd" clip-rule="evenodd" d="M5 0.25C2.65279 0.25 0.75 2.15279 0.75 4.5C0.75 6.84721 2.65279 8.75 5 8.75H34.75C36.9591 8.75 38.75 10.5409 38.75 12.75C38.75 14.9591 36.9591 16.75 34.75 16.75H5.25C2.76472 16.75 0.75 18.7647 0.75 21.25C0.75 23.7353 2.76472 25.75 5.25 25.75H15.0088C15.137 27.5663 16.6511 29 18.5 29C20.3489 29 21.863 27.5663 21.9912 25.75H34.75C36.9591 25.75 38.75 27.5409 38.75 29.75C38.75 31.9591 36.9591 33.75 34.75 33.75H5.25C2.76472 33.75 0.75 35.7647 0.75 38.25C0.75 40.7353 2.76472 42.75 5.25 42.75H38V42.25H5.25C3.04086 42.25 1.25 40.4591 1.25 38.25C1.25 36.0409 3.04086 34.25 5.25 34.25H34.75C37.2353 34.25 39.25 32.2353 39.25 29.75C39.25 27.2647 37.2353 25.25 34.75 25.25H21.9912C21.863 23.4337 20.3489 22 18.5 22C16.6511 22 15.137 23.4337 15.0088 25.25H5.25C3.04086 25.25 1.25 23.4591 1.25 21.25C1.25 19.0409 3.04086 17.25 5.25 17.25H34.75C37.2353 17.25 39.25 15.2353 39.25 12.75C39.25 10.2647 37.2353 8.25 34.75 8.25H5C2.92893 8.25 1.25 6.57107 1.25 4.5C1.25 2.42893 2.92893 0.75 5 0.75H38V0.25H5ZM15.5 25.5C15.5 27.1569 16.8431 28.5 18.5 28.5C20.1569 28.5 21.5 27.1569 21.5 25.5C21.5 23.8431 20.1569 22.5 18.5 22.5C16.8431 22.5 15.5 23.8431 15.5 25.5Z" fill="#D9D9D9"/>
<path d="M15.0088 25.75L15.5076 25.7148L15.4747 25.25H15.0088V25.75ZM21.9912 25.75V25.25H21.5253L21.4924 25.7148L21.9912 25.75ZM38 42.75V43.25H38.5V42.75H38ZM38 42.25H38.5V41.75H38V42.25ZM21.9912 25.25L21.4924 25.2852L21.5253 25.75H21.9912V25.25ZM15.0088 25.25V25.75H15.4747L15.5076 25.2852L15.0088 25.25ZM38 0.75V1.25H38.5V0.75H38ZM38 0.25H38.5V-0.25H38V0.25ZM1.25 4.5C1.25 2.42893 2.92893 0.75 5 0.75V-0.25C2.37665 -0.25 0.25 1.87665 0.25 4.5H1.25ZM5 8.25C2.92893 8.25 1.25 6.57107 1.25 4.5H0.25C0.25 7.12335 2.37665 9.25 5 9.25V8.25ZM34.75 8.25H5V9.25H34.75V8.25ZM39.25 12.75C39.25 10.2647 37.2353 8.25 34.75 8.25V9.25C36.683 9.25 38.25 10.817 38.25 12.75H39.25ZM34.75 17.25C37.2353 17.25 39.25 15.2353 39.25 12.75H38.25C38.25 14.683 36.683 16.25 34.75 16.25V17.25ZM5.25 17.25H34.75V16.25H5.25V17.25ZM1.25 21.25C1.25 19.0409 3.04086 17.25 5.25 17.25V16.25C2.48858 16.25 0.25 18.4886 0.25 21.25H1.25ZM5.25 25.25C3.04086 25.25 1.25 23.4591 1.25 21.25H0.25C0.25 24.0114 2.48858 26.25 5.25 26.25V25.25ZM15.0088 25.25H5.25V26.25H15.0088V25.25ZM14.51 25.7852C14.6566 27.8615 16.3867 29.5 18.5 29.5V28.5C16.9154 28.5 15.6174 27.2712 15.5076 25.7148L14.51 25.7852ZM18.5 29.5C20.6133 29.5 22.3434 27.8615 22.49 25.7852L21.4924 25.7148C21.3826 27.2712 20.0846 28.5 18.5 28.5V29.5ZM34.75 25.25H21.9912V26.25H34.75V25.25ZM39.25 29.75C39.25 27.2647 37.2353 25.25 34.75 25.25V26.25C36.683 26.25 38.25 27.817 38.25 29.75H39.25ZM34.75 34.25C37.2353 34.25 39.25 32.2353 39.25 29.75H38.25C38.25 31.683 36.683 33.25 34.75 33.25V34.25ZM5.25 34.25H34.75V33.25H5.25V34.25ZM1.25 38.25C1.25 36.0409 3.04086 34.25 5.25 34.25V33.25C2.48858 33.25 0.25 35.4886 0.25 38.25H1.25ZM5.25 42.25C3.04086 42.25 1.25 40.4591 1.25 38.25H0.25C0.25 41.0114 2.48858 43.25 5.25 43.25V42.25ZM38 42.25H5.25V43.25H38V42.25ZM37.5 42.25V42.75H38.5V42.25H37.5ZM5.25 42.75H38V41.75H5.25V42.75ZM0.75 38.25C0.75 40.7353 2.76472 42.75 5.25 42.75V41.75C3.317 41.75 1.75 40.183 1.75 38.25H0.75ZM5.25 33.75C2.76472 33.75 0.75 35.7647 0.75 38.25H1.75C1.75 36.317 3.317 34.75 5.25 34.75V33.75ZM34.75 33.75H5.25V34.75H34.75V33.75ZM38.75 29.75C38.75 31.9591 36.9591 33.75 34.75 33.75V34.75C37.5114 34.75 39.75 32.5114 39.75 29.75H38.75ZM34.75 25.75C36.9591 25.75 38.75 27.5409 38.75 29.75H39.75C39.75 26.9886 37.5114 24.75 34.75 24.75V25.75ZM21.9912 25.75H34.75V24.75H21.9912V25.75ZM22.49 25.2148C22.3434 23.1385 20.6133 21.5 18.5 21.5V22.5C20.0846 22.5 21.3826 23.7288 21.4924 25.2852L22.49 25.2148ZM18.5 21.5C16.3867 21.5 14.6566 23.1385 14.51 25.2148L15.5076 25.2852C15.6174 23.7288 16.9154 22.5 18.5 22.5V21.5ZM5.25 25.75H15.0088V24.75H5.25V25.75ZM0.75 21.25C0.75 23.7353 2.76472 25.75 5.25 25.75V24.75C3.317 24.75 1.75 23.183 1.75 21.25H0.75ZM5.25 16.75C2.76472 16.75 0.75 18.7647 0.75 21.25H1.75C1.75 19.317 3.317 17.75 5.25 17.75V16.75ZM34.75 16.75H5.25V17.75H34.75V16.75ZM38.75 12.75C38.75 14.9591 36.9591 16.75 34.75 16.75V17.75C37.5114 17.75 39.75 15.5114 39.75 12.75H38.75ZM34.75 8.75C36.9591 8.75 38.75 10.5409 38.75 12.75H39.75C39.75 9.98858 37.5114 7.75 34.75 7.75V8.75ZM5 8.75H34.75V7.75H5V8.75ZM0.75 4.5C0.75 6.84721 2.65279 8.75 5 8.75V7.75C3.20507 7.75 1.75 6.29493 1.75 4.5H0.75ZM5 0.25C2.65279 0.25 0.75 2.15279 0.75 4.5H1.75C1.75 2.70507 3.20507 1.25 5 1.25V0.25ZM38 0.25H5V1.25H38V0.25ZM37.5 0.25V0.75H38.5V0.25H37.5ZM5 0.75H38V-0.25H5V0.75ZM15 25.5C15 27.433 16.567 29 18.5 29V28C17.1193 28 16 26.8807 16 25.5H15ZM18.5 29C20.433 29 22 27.433 22 25.5H21C21 26.8807 19.8807 28 18.5 28V29ZM22 25.5C22 23.567 20.433 22 18.5 22V23C19.8807 23 21 24.1193 21 25.5H22ZM18.5 22C16.567 22 15 23.567 15 25.5H16C16 24.1193 17.1193 23 18.5 23V22Z" fill="black" mask="url(#path-1-inside-1_271_4)"/>
</svg>
