<svg width="48" height="48" viewBox="0 0 48 48" fill="none" xmlns="http://www.w3.org/2000/svg">
<path d="M38.4001 21.68V16C35.7401 16 33.7101 15.29 32.4001 13.91C31.0556 12.335 30.3023 10.3405 30.2701 8.26998V7.85998L24.9001 7.72998V30.8C24.7159 31.8065 24.2273 32.7323 23.5002 33.4524C22.7732 34.1725 21.8427 34.6522 20.8344 34.8267C19.8262 35.0012 18.7886 34.8621 17.8618 34.4282C16.9351 33.9944 16.1638 33.2866 15.652 32.4005C15.1403 31.5144 14.9127 30.4926 15 29.4731C15.0874 28.4535 15.4855 27.4853 16.1405 26.6992C16.7955 25.913 17.676 25.3468 18.6631 25.0769C19.6501 24.807 20.6962 24.8465 21.6601 25.19V19.69C21.0981 19.5979 20.5296 19.5511 19.9601 19.55C17.9111 19.55 15.9081 20.1576 14.2044 21.296C12.5007 22.4343 11.1728 24.0523 10.3887 25.9454C9.60459 27.8384 9.39942 29.9215 9.79917 31.9311C10.1989 33.9408 11.1856 35.7867 12.6345 37.2356C14.0833 38.6845 15.9293 39.6712 17.939 40.0709C19.9486 40.4707 22.0317 40.2655 23.9247 39.4814C25.8177 38.6972 27.4358 37.3694 28.5741 35.6657C29.7125 33.962 30.3201 31.959 30.3201 29.91C30.319 29.4854 30.2923 29.0613 30.2401 28.64V19.49C32.6819 21.0149 35.5229 21.7774 38.4001 21.68Z" fill="white"/>
</svg>
